<svg width="192" height="188" viewBox="0 0 192 188" fill="none" xmlns="http://www.w3.org/2000/svg">
<g opacity="0.8" clip-path="url(#clip0)">
<path opacity="0.18" d="M209.966 153.121C204.971 173.484 181.58 185.437 159.512 187.506C156.565 187.785 153.611 187.937 150.664 187.981C134.054 188.253 117.43 185.349 100.76 184.216C98.2425 184.045 95.7248 183.912 93.2072 183.843C69.4539 183.153 43.4582 187.082 23.7265 174.591C8.16399 164.745 0.537163 146.413 0.0336311 128.765C-0.469901 111.117 5.16294 93.8607 11.3799 77.2058C19.376 55.7861 28.9028 34.031 46.2176 18.2431C61.8271 4.02443 81.6662 -1.74023 102.962 0.449205C122.815 2.48677 143.299 3.36001 162.956 5.87216C191.08 9.46637 213.155 36.9545 209.174 63.4555C207.697 73.3016 203.179 82.6351 202.366 92.5635C200.681 112.977 214.86 133.144 209.966 153.121Z" fill="#68E1FD"/>
<path d="M50.9843 75.586C57.5302 75.4847 64.0895 75.3772 70.6086 75.8771C71.5082 75.9467 72.4146 76.0289 73.2941 76.0416C74.1736 76.0543 75.1672 75.9846 76.1072 75.934C79.6252 75.7505 83.1096 75.9024 86.6209 75.9846C82.069 74.2888 74.9054 75.5733 70.0245 75.5733C63.6934 75.5797 57.3355 75.4847 50.9843 75.586Z" fill="white"/>
<path d="M75.8453 109.725C72.1259 112.458 68.1581 115.217 66.0835 119.216C68.5225 118.351 70.7183 116.97 72.5019 115.179C74.3884 113.281 75.7715 110.984 77.7587 109.187C80.8336 106.396 85.1036 105.048 88.3262 102.403C91.1669 100.028 93.522 97.1817 95.2749 94.0063C92.2806 94.424 88.4403 99.6191 86.1912 101.536C82.8545 104.371 79.4305 107.162 75.8453 109.725Z" fill="white"/>
<path d="M150.663 187.975C134.054 188.247 117.43 185.342 100.76 184.21C101.472 181.678 102.181 179.133 102.888 176.572C104.157 172.035 104.674 172.029 109.508 172.908C118.177 174.478 127.023 175.001 135.833 174.465C136.981 174.395 148.549 173.604 148.589 172.94C148.437 178.023 149.137 183.097 150.663 187.975Z" fill="#080608"/>
<path d="M101.841 83.2553C104.231 88.2733 108.085 93.7216 113.926 94.0126C117.182 94.1645 120.277 92.5699 122.707 90.5197C129.341 84.9195 131.912 76.1998 132.859 67.8534C133.342 63.6074 133.396 58.9944 130.898 55.4382C128.401 51.8819 124.09 50.1861 119.814 49.1736C111.193 47.1297 98.6654 48.4775 95.2817 57.8301C92.6163 65.1387 98.7527 76.7693 101.841 83.2553Z" fill="#F38A6B"/>
<path d="M129.011 69.4037C129.011 69.372 129.011 69.3404 129.011 69.3088V69.3847C129.011 69.5429 129.05 69.7074 129.063 69.8783C129.032 69.7215 129.01 69.563 128.998 69.4037H129.011Z" fill="#32406A"/>
<path d="M135.269 61.9748C135.121 62.4367 134.967 62.8924 134.812 63.348C134.074 65.5121 133.333 67.6762 132.59 69.8403C132.232 68.5868 131.538 67.4408 130.576 66.5119C130.367 66.305 130.143 66.1126 129.905 65.936C129.232 66.9418 128.917 68.123 129.005 69.3088C128.575 66.8979 126.46 64.9805 124.305 63.5378C121.989 61.9811 119.377 60.5827 117.954 58.2604C117.712 57.7533 117.368 57.2955 116.94 56.9125C116.338 56.5612 115.631 56.4056 114.926 56.4696C113.711 56.4696 112.435 56.6088 111.193 56.6404C109.374 56.6784 107.615 56.5265 106.158 55.5584C105.516 55.0174 104.821 54.5343 104.083 54.1156C102.741 53.5651 101.21 54.0017 99.9679 54.6915C98.7077 55.4001 97.6149 56.3446 96.757 57.4667C95.8991 58.5887 95.2941 59.8646 94.9795 61.2155C94.5834 63.0063 94.5834 65.1261 93.0594 66.2777C91.7838 67.2269 89.8435 67.0244 88.5343 66.1195C87.2781 65.1336 86.4044 63.7827 86.0502 62.2786C85.7078 61.0699 85.4997 59.7474 84.5665 58.8425C83.4722 57.8048 81.7534 57.7225 80.3033 57.1846C78.9444 56.6775 77.8097 55.7489 77.0862 54.552C76.3627 53.3552 76.0938 51.9616 76.3238 50.6013C76.5537 49.241 77.2689 47.9952 78.3512 47.0696C79.4336 46.144 80.8183 45.5938 82.2771 45.5098C84.5799 45.3769 87.0842 46.3767 89.0849 45.301C94.194 42.5484 98.3096 37.562 104.923 38.6567C108.394 39.2326 111.777 40.6753 115.275 40.3336C116.84 40.1817 118.35 39.6692 119.914 39.5616C124.661 39.2389 129.22 43.2761 129.166 47.7562C132.563 47.3892 135.537 50.2873 136.276 53.4512C136.276 53.5272 136.316 53.5968 136.33 53.6727C136.873 56.438 136.162 59.2538 135.269 61.9748Z" fill="#32406A"/>
<path d="M135.725 64.8476C136.064 65.8471 136.087 66.9176 135.793 67.9293C135.484 69.4156 135.021 70.8696 134.409 72.2702C133.852 73.5358 133.067 74.8646 131.664 75.2886C131.461 75.363 131.244 75.3947 131.027 75.3816C130.81 75.3685 130.599 75.3108 130.408 75.2127C128.575 74.0926 128.756 69.3847 129.495 67.6192C130.294 65.7146 134 60.8611 135.725 64.8476Z" fill="#F38A6B"/>
<path d="M113.57 67.6572C112.558 68.1681 111.434 68.4498 110.287 68.4798C108.944 68.4798 106.138 66.1322 108.159 66.4106C108.971 66.5182 109.918 67.3725 110.804 67.575C111.509 67.7458 112.831 67.9736 113.57 67.6572Z" fill="#32406A"/>
<path d="M99.2092 70.973C100.04 71.1124 100.897 70.9971 101.653 70.644C102.499 70.182 103.479 67.1004 102.264 68.0242C101.781 68.3976 101.485 69.4986 100.982 69.9795C100.478 70.4604 99.7933 71.03 99.2092 70.973Z" fill="#32406A"/>
<path d="M101.982 72.9346C102.308 72.8312 102.646 72.7653 102.989 72.7385C103.298 72.6928 103.613 72.7079 103.916 72.7828C104.07 72.8192 104.213 72.8915 104.33 72.9932C104.447 73.0949 104.536 73.2227 104.587 73.3649C103.642 73.1541 102.651 73.2203 101.747 73.5548C101.216 73.7944 100.746 74.1398 100.371 74.5672C100.473 74.1898 100.674 73.8426 100.956 73.5573C101.237 73.2721 101.59 73.058 101.982 72.9346Z" fill="#32406A"/>
<path d="M111.495 71.0869C111.822 70.9778 112.163 70.9097 112.509 70.8844C112.816 70.8409 113.129 70.8582 113.429 70.935C113.583 70.9703 113.725 71.0416 113.843 71.1422C113.96 71.2428 114.049 71.3696 114.1 71.5109C113.155 71.3 112.164 71.3662 111.26 71.7007C110.74 71.942 110.282 72.2875 109.918 72.7132C110.015 72.3394 110.211 71.9947 110.487 71.7107C110.762 71.4266 111.109 71.2121 111.495 71.0869Z" fill="#32406A"/>
<path d="M105.816 77.7311C105.44 78.307 104.923 78.9144 105.077 79.5789C105.162 79.8297 105.312 80.0566 105.514 80.239C105.716 80.4213 105.962 80.5533 106.232 80.623C106.755 80.7938 107.326 80.8254 107.863 80.952C108.315 81.0614 108.75 81.2229 109.159 81.4329C109.273 81.1988 109.065 80.9393 108.83 80.8001C108.58 80.7024 108.352 80.5607 108.159 80.3825C107.83 79.9712 108.159 79.3257 107.836 78.9018C107.608 78.5917 107.165 78.5411 106.809 78.3323C106.595 78.1901 106.422 78.0001 106.304 77.7792C106.187 77.5583 106.13 77.3135 106.138 77.0667C106.129 76.7006 106.222 76.3386 106.406 76.0163C106.574 76.5225 106.138 77.2376 105.816 77.7311Z" fill="#EB737F"/>
<path d="M111.878 83.5654C110.612 83.9319 109.305 84.1592 107.984 84.2425C107.854 84.2382 107.726 84.2762 107.622 84.35C107.44 84.5082 107.568 84.7867 107.622 85.0145C107.703 85.3504 107.764 85.6906 107.803 86.0332C107.827 86.2068 107.903 86.3702 108.022 86.5047C108.141 86.6391 108.297 86.7389 108.474 86.7926C108.825 86.8161 109.173 86.7144 109.448 86.5078C110.292 86.0697 111.244 85.8513 112.207 85.8751C112.427 85.8695 112.645 85.9106 112.845 85.9953C113.004 86.086 113.152 86.192 113.288 86.3117C113.532 86.4972 113.819 86.6265 114.125 86.6891C114.432 86.7517 114.75 86.746 115.054 86.6724C114.928 86.5314 114.775 86.4134 114.604 86.3243C113.787 85.8893 113.157 85.1993 112.823 84.3733C112.488 83.5474 112.47 82.6372 112.771 81.7999C112.637 82.5213 112.65 83.3249 111.878 83.5654Z" fill="#32406A"/>
<path d="M111.019 84.1982C110.804 84.3207 110.613 84.477 110.455 84.6601C110.346 84.8104 110.26 84.9745 110.2 85.1473L109.911 85.8307C110.255 85.8571 110.602 85.8206 110.931 85.7232C111.442 85.6202 111.961 85.5546 112.482 85.527C112.549 85.527 112.63 85.527 112.664 85.4574C112.677 85.4317 112.683 85.4036 112.683 85.3751C112.683 85.3467 112.677 85.3185 112.664 85.2929C112.556 85.0398 112.395 84.812 112.281 84.5715C112.167 84.3311 112.281 83.8628 111.979 83.7932C111.677 83.7236 111.227 84.0336 111.019 84.1982Z" fill="#EB737F"/>
<path d="M107.487 107.333C110.012 114.439 109.689 122.171 106.581 129.069C106.002 130.526 105.084 131.843 103.895 132.923C102.727 133.771 101.424 134.442 100.035 134.909C86.9365 140.162 73.1263 153.222 57.6913 149.096C55.2274 148.464 52.7903 147.236 51.4542 145.18C50.9807 144.432 50.6448 143.615 50.4606 142.762C50.23 141.665 50.1465 140.545 50.2122 139.428C50.6016 130.569 56.55 122.912 60.5245 114.857C63.1563 109.535 64.9825 103.852 67.5471 98.5307C68.4993 96.5187 69.5985 94.5713 70.8369 92.7028C71.1516 91.9837 71.7363 91.399 72.4793 91.0605C73.2224 90.722 74.0718 90.6534 74.8651 90.8677C77.3823 91.1514 79.8589 91.6946 82.2503 92.4877C82.3913 97.5499 80.2361 102.378 78.7121 107.232C76.9517 112.849 76.001 118.663 75.8856 124.519C85.0128 120.882 93.4227 115.818 100.76 109.541C104.07 106.706 109.488 101.878 109.622 109.339C109.716 114.059 107.534 119.128 104.533 122.823C103.129 124.481 101.606 126.045 99.9746 127.506L93.6569 133.422C88.7425 138.029 83.7407 142.693 77.7185 145.933C77.5394 146.034 77.3582 146.129 77.1747 146.217" fill="#68E1FD"/>
<path d="M107.487 107.333C110.012 114.439 109.689 122.171 106.581 129.069C106.002 130.526 105.084 131.843 103.895 132.923C102.727 133.771 101.424 134.442 100.035 134.909C86.9365 140.162 73.1263 153.222 57.6913 149.096C55.2274 148.464 52.7903 147.236 51.4542 145.18C50.9807 144.432 50.6448 143.615 50.4606 142.762C50.23 141.665 50.1465 140.545 50.2122 139.428C50.6016 130.569 56.55 122.912 60.5245 114.857C63.1563 109.535 64.9825 103.852 67.5471 98.5307C68.4993 96.5187 69.5985 94.5713 70.8369 92.7028C71.1516 91.9837 71.7363 91.399 72.4793 91.0605C73.2224 90.722 74.0718 90.6534 74.8651 90.8677C77.3823 91.1514 79.8589 91.6946 82.2503 92.4877C82.3913 97.5499 80.2361 102.378 78.7121 107.232C76.9517 112.849 76.001 118.663 75.8856 124.519C85.0128 120.882 93.4227 115.818 100.76 109.541C104.07 106.706 109.488 101.878 109.622 109.339C109.716 114.059 107.534 119.128 104.533 122.823C103.129 124.481 101.606 126.045 99.9746 127.506L93.6569 133.422C88.7425 138.029 83.7407 142.693 77.7185 145.933C77.5394 146.034 77.3582 146.129 77.1747 146.217" fill="url(#paint0_linear)"/>
<path d="M107.246 149.691C106.789 156.557 104.036 163.195 103.996 170.073C103.894 171.146 104.152 172.222 104.735 173.149C105.406 174.06 106.608 174.49 107.729 174.844C119.477 178.543 132.067 179.188 144.171 176.711C145.668 176.401 147.226 176.009 148.334 175.009C149.296 174.002 149.94 172.761 150.194 171.427C151.59 166.004 150.952 160.322 150.194 154.785C147.77 136.658 144.346 118.663 139.935 100.872C139.552 99.3217 139.129 97.7081 138.042 96.4868C136.262 94.4746 133.06 94.0316 130.374 94.715C122.64 96.683 109.213 106.181 106.339 113.661C101.975 125.057 108.018 138.086 107.246 149.691Z" fill="#68E1FD"/>
<path d="M107.246 149.691C106.789 156.557 104.036 163.195 103.996 170.073C103.894 171.146 104.152 172.222 104.735 173.149C105.406 174.06 106.608 174.49 107.729 174.844C119.477 178.543 132.067 179.188 144.171 176.711C145.668 176.401 147.226 176.009 148.334 175.009C149.296 174.002 149.94 172.761 150.194 171.427C151.59 166.004 150.952 160.322 150.194 154.785C147.77 136.658 144.346 118.663 139.935 100.872C139.552 99.3217 139.129 97.7081 138.042 96.4868C136.262 94.4746 133.06 94.0316 130.374 94.715C122.64 96.683 109.213 106.181 106.339 113.661C101.975 125.057 108.018 138.086 107.246 149.691Z" fill="url(#paint1_linear)"/>
<path d="M102.687 139.377C101.64 142.699 99.7329 145.705 98.1686 148.869C95.8537 153.497 94.2704 158.419 93.4689 163.48C99.7591 161.777 106.422 161.72 112.744 163.315L115.06 133.739C115.876 121.813 118.394 110.044 122.546 98.7522C113.57 95.873 109.542 102.321 108.199 109.256C106.312 119.001 105.668 129.98 102.687 139.377Z" fill="#68E1FD"/>
<path d="M122.546 98.7522C122.439 99.037 122.338 99.328 122.237 99.6128C121.15 102.619 120.223 105.574 119.391 108.529C117.127 116.788 115.687 125.228 115.087 133.739L112.771 163.296C106.45 161.696 99.7862 161.751 93.4958 163.454C94.2982 158.394 95.8815 153.472 98.1954 148.843C99.7597 145.711 101.666 142.699 102.714 139.352C105.534 130.493 106.259 120.172 107.93 110.876L108.233 109.263C108.367 108.567 108.528 107.871 108.723 107.194C110.408 101.119 114.463 96.1641 122.546 98.7522Z" fill="url(#paint2_linear)"/>
<path d="M127.212 83.268C125.95 86.8495 124.661 90.7538 121.405 92.9559C118.39 94.9935 114.349 95.0757 110.663 94.4999C108.971 94.2278 107.212 93.8671 105.581 94.3227C103.949 94.7783 102.586 96.5691 103.325 98.0308C103.996 99.366 106.01 99.7773 106.568 101.163C106.984 102.207 106.38 103.359 106.433 104.473C106.541 106.516 108.978 107.915 111.133 107.706C113.288 107.497 115.161 106.124 116.625 104.631C118.088 103.137 119.424 101.467 121.203 100.277C124.043 98.3789 127.662 98.0561 131.079 97.512C134.497 96.9678 138.156 95.9806 140.197 93.3482C141.539 91.5828 141.714 88.634 139.673 87.6026C139.235 87.4538 138.831 87.226 138.485 86.9318C137.907 86.299 138.404 85.2929 138.532 84.445C138.921 81.9518 135.564 80.7305 133.597 79.9585C130.059 78.5601 128.34 80.0092 127.212 83.268Z" fill="#68E1FD"/>
<path d="M79.4506 97.9739C78.3227 99.6318 76.2616 100.448 74.5496 101.568C73.0265 102.58 71.7362 103.871 70.7563 105.365C64.3049 115.284 59.5813 126.113 56.7648 137.441C56.5624 138.588 56.1221 139.687 55.4691 140.674C54.321 142.161 52.4613 142.699 50.4606 142.788C50.23 141.69 50.1465 140.57 50.2122 139.453C50.6016 130.594 56.55 122.937 60.5245 114.882C63.1563 109.56 64.9825 103.878 67.5471 98.556C71.7231 97.0753 76.1407 96.3856 80.2563 93.9937C80.4997 95.3685 80.2139 96.7801 79.4506 97.9739Z" fill="url(#paint3_linear)"/>
<path d="M72.3072 81.0343C72.4094 80.4351 72.6602 79.8671 73.039 79.3764C73.5805 78.8783 74.2599 78.534 74.9994 78.3829C77.8554 77.5632 80.802 77.0557 83.781 76.8706C85.1914 76.6826 86.6295 76.8734 87.9301 77.4211C90.2195 78.5917 90.8372 81.3633 91.2064 83.7932C91.3181 84.2392 91.2972 84.7055 91.146 85.141C90.8004 85.6583 90.294 86.0627 89.6958 86.299C88.0014 87.2544 86.7252 88.7491 86.0972 90.5134C85.9313 91.271 85.5973 91.9869 85.117 92.6142C84.5694 93.1017 83.8552 93.3889 83.1029 93.4242C80.7329 93.6583 78.5711 92.5446 76.2616 92.2978C74.7308 92.1333 71.8305 92.9306 70.7764 91.5765C69.4404 89.811 71.8305 82.9833 72.3072 81.0343Z" fill="#F38A6B"/>
<path d="M82.2771 94.5568C76.04 98.3535 68.4132 100.296 63.2839 105.365C59.5913 109.01 57.3959 114.104 53.2132 117.065C52.7573 117.385 52.2796 117.677 51.7832 117.938C50.3398 118.704 48.3525 119.109 47.1507 118.039C46.2511 117.242 46.1101 115.894 45.2172 115.103C42.9412 113.085 39.2486 116.508 36.261 115.648C33.5755 114.869 33.3338 111.294 34.1596 108.744C34.9854 106.194 36.2879 103.308 34.831 101.024C33.1458 98.3725 28.426 97.86 27.8688 94.8163C27.8623 94.7659 27.8623 94.7149 27.8688 94.6644C27.654 93.0065 28.9833 91.4182 30.6013 90.6969C32.2193 89.9755 34.173 89.9249 36.0193 89.8806C45.8853 89.6543 55.7245 88.813 65.4726 87.3621C69.5008 86.7673 84.8955 81.8885 86.0972 89.0263C86.4799 91.3486 84.3449 93.2913 82.2771 94.5568Z" fill="white"/>
<path d="M75.4828 91.0512C74.7644 94.2152 71.28 95.9427 68.2722 97.4803C65.1789 99.0547 62.2144 100.844 59.4033 102.834C58.1949 103.694 56.8722 104.966 57.3288 106.327C57.4765 106.782 57.8122 107.168 57.9263 107.624C58.0129 108.356 57.8175 109.092 57.3758 109.699L54.2942 115.205C53.9451 115.837 53.5825 116.47 53.1998 117.103C52.7438 117.423 52.2661 117.715 51.7698 117.976C50.3263 118.742 48.3391 119.147 47.1373 118.077C46.2377 117.28 46.0967 115.932 45.2037 115.141C42.9278 113.123 39.2352 116.546 36.2476 115.685C33.5621 114.907 33.3204 111.332 34.1462 108.782C34.972 106.232 36.2744 103.346 34.8175 101.062C33.1324 98.4105 28.4126 97.898 27.8554 94.8543C27.8489 94.8038 27.8489 94.7528 27.8554 94.7024C29.3738 94.8608 30.873 95.1532 32.3335 95.5756C35.5561 96.3476 44.2705 95.7591 44.8479 100.113C45.0829 101.872 43.5991 103.675 44.284 105.333C45.1903 106.181 46.8083 105.65 47.6408 104.7C48.4733 103.751 48.8963 102.581 49.7691 101.695C50.6822 100.892 51.7674 100.284 52.9514 99.9102L75.4828 91.0512Z" fill="url(#paint4_linear)"/>
<path d="M105.99 121.317C105.017 119.451 103.546 117.521 101.378 117.179L101.297 119.957C99.6664 117.832 97.3142 116.296 94.6304 115.603C91.9676 114.923 89.2305 114.534 86.4732 114.445C85.8824 115.122 86.8626 116.015 87.6951 116.401L92.3947 118.577C90.1702 117.887 87.8481 117.516 85.5064 117.476C85.2567 117.452 85.0054 117.503 84.7881 117.622C84.6469 117.752 84.5619 117.927 84.5495 118.113C84.5371 118.299 84.5982 118.482 84.7209 118.628C84.9785 118.912 85.309 119.13 85.681 119.261L90.8036 121.539C88.7221 121.166 86.6038 121.007 84.4859 121.064C83.8145 121.064 82.8545 121.387 82.9753 122.032C83.0425 122.418 83.4654 122.627 83.8414 122.785L90.2665 125.456C88.5276 125.146 86.6209 124.861 85.0633 125.658C86.6545 127.171 89.0311 127.62 91.0251 128.613C93.9053 130.056 96.0403 132.676 99.0816 133.789C100.923 134.358 102.851 134.631 104.788 134.599C105.588 134.675 106.396 134.6 107.165 134.378C112.999 132.29 107.528 124.222 105.99 121.317Z" fill="#F38A6B"/>
<path d="M129.851 72.1753C130.146 72.1885 130.438 72.1094 130.681 71.9504C130.923 71.7913 131.104 71.5612 131.194 71.2957C131.353 70.7502 131.405 70.182 131.348 69.6189C131.319 69.0703 131.396 68.5213 131.576 67.9989C131.667 67.739 131.812 67.4989 132.004 67.2934C132.195 67.0878 132.429 66.921 132.691 66.803C132.863 66.7227 133.06 66.7004 133.248 66.7397C133.374 66.79 133.486 66.8661 133.576 66.9625C133.667 67.0588 133.734 67.1729 133.772 67.2965C133.97 67.8367 134.05 68.4094 134.007 68.9797C133.979 69.8911 133.86 70.7979 133.651 71.688C133.59 72.012 133.467 72.3229 133.288 72.6056C133.138 72.7985 132.964 72.9747 132.771 73.1308C132.472 73.4351 132.088 73.6543 131.664 73.7636C131.42 73.8032 131.169 73.7717 130.944 73.6733C130.72 73.575 130.533 73.4144 130.408 73.2131C130.29 73.0072 130.241 72.7724 130.267 72.5397C130.294 72.307 130.394 72.0873 130.556 71.9095" fill="url(#paint5_linear)"/>
<path d="M158.948 146.977C159.207 147.81 159.162 148.701 158.821 149.508C158.308 150.21 157.546 150.717 156.672 150.938C148.703 153.716 139.767 152.033 131.751 149.381C125.496 147.315 119.468 144.683 113.751 141.522C110.723 139.845 107.635 137.865 106.171 134.859C104.708 131.853 105.641 127.582 108.911 126.38C111.227 125.532 113.805 126.38 116.108 127.284L129.428 132.347C130.166 128.246 127.79 124.298 126.219 120.412C123.103 112.711 123.365 104.276 128.642 97.5183C133.235 91.627 140.606 87.7164 146.87 94.0506C152.308 99.5558 152.147 110.756 153.463 117.78L158.948 146.977Z" fill="#68E1FD"/>
<path d="M158.948 146.977C159.207 147.81 159.162 148.701 158.821 149.508C158.308 150.21 157.546 150.717 156.672 150.938C148.703 153.716 139.767 152.033 131.751 149.381C125.496 147.315 119.468 144.683 113.751 141.522C110.723 139.845 107.635 137.865 106.171 134.859C104.708 131.853 105.641 127.582 108.911 126.38C111.227 125.532 113.805 126.38 116.108 127.284L129.428 132.347C130.166 128.246 127.79 124.298 126.219 120.412C123.103 112.711 123.365 104.276 128.642 97.5183C133.235 91.627 140.606 87.7164 146.87 94.0506C152.308 99.5558 152.147 110.756 153.463 117.78L158.948 146.977Z" fill="url(#paint6_linear)"/>
<path d="M140.23 93.247C138.216 95.8857 134.53 96.8665 131.113 97.417C127.696 97.9675 124.077 98.2966 121.237 100.176C119.458 101.353 118.149 103.042 116.658 104.536C115.168 106.029 113.335 107.396 111.166 107.605C108.998 107.814 106.567 106.422 106.467 104.371C106.413 103.258 107.017 102.106 106.601 101.062C106.25 100.384 105.688 99.8234 104.99 99.4546C104.32 99.0813 103.76 98.5573 103.358 97.9296C102.62 96.4742 103.976 94.7087 105.614 94.2278C107.252 93.7469 109.005 94.1329 110.696 94.3986C114.355 94.9745 118.397 94.8922 121.438 92.8546C124.695 90.6525 125.984 86.7546 127.246 83.1667C128.394 79.9142 130.092 78.4588 133.664 79.8573C135.631 80.6293 138.988 81.8505 138.599 84.3437C138.552 84.6474 138.465 84.9765 138.391 85.2802C138.289 85.5339 138.25 85.8063 138.278 86.0763C138.306 86.3462 138.4 86.6065 138.552 86.8369C138.898 87.129 139.302 87.3547 139.74 87.5013C141.768 88.5327 141.6 91.4878 140.23 93.247Z" fill="url(#paint7_linear)"/>
<path d="M122.237 99.5938C121.15 102.6 120.223 105.555 119.391 108.51C118.507 109.34 117.472 110.015 116.336 110.503C114.967 110.946 113.527 111.16 112.079 111.136C110.682 111.244 109.274 111.157 107.904 110.876L108.206 109.263C108.34 108.567 108.501 107.871 108.696 107.194C109.464 107.541 110.318 107.686 111.166 107.611C113.335 107.402 115.195 106.029 116.658 104.542C118.122 103.055 119.458 101.378 121.237 100.182C121.558 99.9683 121.892 99.7718 122.237 99.5938Z" fill="url(#paint8_linear)"/>
<path d="M140.23 93.247C138.216 95.8857 134.53 96.8665 131.113 97.417C127.696 97.9675 124.077 98.2966 121.237 100.176C119.458 101.353 118.149 103.042 116.658 104.536C115.168 106.029 113.335 107.396 111.166 107.605C108.998 107.814 106.567 106.422 106.467 104.371C106.413 103.258 107.017 102.106 106.601 101.062C106.25 100.384 105.688 99.8234 104.99 99.4546C105.215 99.1635 105.5 98.9179 105.827 98.732C106.155 98.5462 106.518 98.424 106.896 98.3725C107.424 98.3209 107.951 98.4674 108.365 98.7801C108.778 99.0929 109.045 99.5467 109.105 100.043C109.105 100.423 108.958 100.828 109.152 101.15C109.323 101.381 109.579 101.541 109.871 101.6C111.777 102.15 113.852 101.397 115.504 100.334C117.155 99.2711 118.572 97.8916 120.311 96.9614C124.07 94.9555 128.924 95.2656 132.509 92.9939C133.483 92.3611 134.403 91.2157 133.852 90.2476C131.053 89.7224 128.521 92.399 125.668 92.2092C128.3 91.1208 131.63 90.2413 133.725 88.3492C135.175 87.052 136.37 85.4637 138.364 85.2866C138.262 85.5403 138.224 85.8127 138.252 86.0826C138.279 86.3526 138.373 86.6128 138.525 86.8432C138.872 87.1353 139.275 87.361 139.713 87.5076C141.768 88.5327 141.6 91.4878 140.23 93.247Z" fill="url(#paint9_linear)"/>
<path d="M135.269 61.9748C135.064 62.2522 134.84 62.5164 134.597 62.7658C133.315 64.0757 131.603 65.0312 130.569 66.5119C130.529 66.5688 130.489 66.6195 130.455 66.6764C129.891 67.5307 129.582 68.5178 129.032 69.3847C129.032 69.3847 129.032 69.3215 129.032 69.2898C128.602 66.8789 126.487 64.9616 124.332 63.5188C122.016 61.9622 119.404 60.5637 117.981 58.2414C117.739 57.7343 117.395 57.2765 116.967 56.8936C116.365 56.5422 115.658 56.3866 114.953 56.4506C113.738 56.4506 112.462 56.5898 111.22 56.6215C110.703 56.3051 110.213 55.9317 109.716 55.5837C107.374 53.9466 104.671 52.8284 101.807 52.3122L117.209 53.4006C117.434 53.4336 117.665 53.414 117.88 53.3437C118.29 53.1791 118.411 52.7109 118.672 52.3502C118.989 52.0279 119.416 51.8218 119.878 51.7685C120.34 51.7152 120.808 51.8181 121.197 52.0591C121.962 52.5649 122.582 53.2409 123.003 54.0271C123.943 55.4698 124.453 57.1404 126.48 56.7797C127.823 56.5455 128.978 55.9887 130.361 55.8685C133.047 55.6407 134.329 55.0585 136.061 52.9703C136.16 53.1173 136.249 53.2694 136.33 53.4259C137.666 56.0457 137.028 59.5956 135.269 61.9748Z" fill="url(#paint10_linear)"/>
</g>
<defs>
<linearGradient id="paint0_linear" x1="129.012" y1="90.3235" x2="59.303" y2="132.132" gradientUnits="userSpaceOnUse">
<stop offset="0.01"/>
<stop offset="0.13" stop-opacity="0.69"/>
<stop offset="1" stop-opacity="0"/>
</linearGradient>
<linearGradient id="paint1_linear" x1="16505.1" y1="18639.5" x2="10906.8" y2="19222.6" gradientUnits="userSpaceOnUse">
<stop offset="0.01"/>
<stop offset="0.13" stop-opacity="0.69"/>
<stop offset="1" stop-opacity="0"/>
</linearGradient>
<linearGradient id="paint2_linear" x1="6879.39" y1="11682.5" x2="7437.75" y2="22487.8" gradientUnits="userSpaceOnUse">
<stop offset="0.01"/>
<stop offset="0.13" stop-opacity="0.69"/>
<stop offset="1" stop-opacity="0"/>
</linearGradient>
<linearGradient id="paint3_linear" x1="4554.06" y1="7894.19" x2="6317.07" y2="10248.7" gradientUnits="userSpaceOnUse">
<stop offset="0.01"/>
<stop offset="0.13" stop-opacity="0.69"/>
<stop offset="1" stop-opacity="0"/>
</linearGradient>
<linearGradient id="paint4_linear" x1="5169.28" y1="652.33" x2="6116.51" y2="6227.74" gradientUnits="userSpaceOnUse">
<stop offset="0.01"/>
<stop offset="0.13" stop-opacity="0.69"/>
<stop offset="1" stop-opacity="0"/>
</linearGradient>
<linearGradient id="paint5_linear" x1="1243.61" y1="991.159" x2="1269.53" y2="991.159" gradientUnits="userSpaceOnUse">
<stop offset="0.01"/>
<stop offset="0.13" stop-opacity="0.69"/>
<stop offset="1" stop-opacity="0"/>
</linearGradient>
<linearGradient id="paint6_linear" x1="19455.6" y1="13041" x2="13536.9" y2="13159.7" gradientUnits="userSpaceOnUse">
<stop offset="0.01"/>
<stop offset="0.13" stop-opacity="0.69"/>
<stop offset="1" stop-opacity="0"/>
</linearGradient>
<linearGradient id="paint7_linear" x1="9543.83" y1="4181.26" x2="9887.89" y2="5476.76" gradientUnits="userSpaceOnUse">
<stop offset="0.01"/>
<stop offset="0.13" stop-opacity="0.69"/>
<stop offset="1" stop-opacity="0"/>
</linearGradient>
<linearGradient id="paint8_linear" x1="3470.06" y1="2260.21" x2="3776.09" y2="2260.21" gradientUnits="userSpaceOnUse">
<stop offset="0.01"/>
<stop offset="0.13" stop-opacity="0.69"/>
<stop offset="1" stop-opacity="0"/>
</linearGradient>
<linearGradient id="paint9_linear" x1="8454.57" y1="3935.86" x2="10413.8" y2="3935.86" gradientUnits="userSpaceOnUse">
<stop offset="0.01"/>
<stop offset="0.13" stop-opacity="0.69"/>
<stop offset="1" stop-opacity="0"/>
</linearGradient>
<linearGradient id="paint10_linear" x1="8045.09" y1="2091.55" x2="9895.78" y2="2091.55" gradientUnits="userSpaceOnUse">
<stop offset="0.01"/>
<stop offset="0.13" stop-opacity="0.69"/>
<stop offset="1" stop-opacity="0"/>
</linearGradient>
<clipPath id="clip0">
<rect width="211" height="188" fill="white"/>
</clipPath>
</defs>
</svg>
