<svg width="228" height="215" viewBox="0 0 228 215" fill="none" xmlns="http://www.w3.org/2000/svg">
<g opacity="0.8">
<path opacity="0.18" d="M172.742 168.688C171.696 171.021 170.355 173.17 168.76 175.068C161.18 184.038 148.94 185.705 138.045 184.012C127.149 182.319 116.7 177.867 105.77 176.677C88.3838 174.787 71.2699 181.253 54.7703 187.595C38.2708 193.937 21.1569 200.468 3.77063 198.709C-12.6014 197.062 -29.3618 186.006 -34.4154 168.674C-34.7305 167.601 -34.9955 166.51 -35.2094 165.406C-40.3847 139.111 -18.4026 114.496 -19.9037 87.6058C-20.3209 80.0938 -22.5811 72.8696 -23.5258 65.4165C-26.6785 40.514 -13.094 14.1601 7.613 4.90257C43.9503 -11.3308 83.2548 18.632 121.11 10.6231C158.85 2.66664 163.788 22.7312 160.212 64.0827C159.009 78.1872 160.35 92.4202 164.153 105.925C167.445 117.575 172.556 128.578 174.88 140.523C176.706 149.885 176.503 160.339 172.742 168.688Z" fill="#68E1FD"/>
<path d="M168 175.014C166.97 177.553 165.649 179.893 164.079 181.958C156.614 191.719 144.561 193.533 133.832 191.69C123.102 189.848 112.812 185.003 102.049 183.708C84.9276 181.652 68.0745 188.688 51.8264 195.589C35.5783 202.49 18.7253 209.597 1.60403 207.683C-14.5185 205.891 -31.0234 193.86 -36 175L168 175.014Z" fill="#68E1FD"/>
<path d="M5.51139 191.168C3.42571 189.318 4.94125 186.288 7.67644 185.002C10.4116 183.717 13.9046 183.674 17.1666 183.681C41.9854 183.681 67.6847 182.339 92.3663 183.815C84.5144 190.73 67.6991 190.554 56.8666 191.013C39.7843 191.741 22.6226 191.79 5.51139 191.168Z" fill="url(#paint0_linear)"/>
<path d="M61.6008 82.0332C61.2689 76.6039 61.1558 71.1628 61.2616 65.7099C61.341 61.7686 61.6586 57.4953 64.2999 54.5146C65.5046 53.2604 66.9113 52.2081 68.4641 51.3997C70.7871 50.0645 73.1844 48.8572 75.6448 47.7833C79.5708 48.6238 84.002 46.3706 87.5527 48.1718C89.2775 49.0617 90.4394 50.7145 91.4281 52.3603C96.3933 60.6879 98.3924 70.4636 98.645 80.105C98.8976 89.7464 97.5408 99.3525 96.1696 108.902C87.4011 110.696 78.3223 109.149 69.5033 107.595C68.7178 107.504 67.9579 107.264 67.2661 106.889C65.4402 105.766 65.3319 103.266 65.2598 101.161C65.0938 95.4535 61.9472 87.7545 61.6008 82.0332Z" fill="#68E1FD"/>
<path d="M89.0177 38.9047C89.0177 40.0913 88.9672 41.3768 88.1877 42.288C87.5656 42.9426 86.722 43.3542 85.8134 43.4464C84.913 43.5241 84.0074 43.5241 83.1071 43.4464C83.0492 43.4317 82.9885 43.4312 82.9304 43.4452C82.8724 43.4591 82.8188 43.4869 82.7744 43.5261C82.73 43.5653 82.6963 43.6147 82.6763 43.6699C82.6562 43.725 82.6505 43.7841 82.6596 43.8419C82.472 45.5959 82.472 47.3643 82.6596 49.1182C82.716 49.3995 82.691 49.6906 82.5875 49.9588C82.483 50.1141 82.3471 50.2469 82.1883 50.3489C82.0294 50.4509 81.8509 50.5201 81.6637 50.5521C80.9988 50.7748 80.3023 50.894 79.5997 50.9052C78.0986 50.9052 76.7129 50.1636 75.3995 49.4502C75.5009 46.9052 75.3632 44.3564 74.9881 41.836C74.5118 38.5798 73.6313 35.3165 73.9994 32.0462C74.0743 30.759 74.5531 29.5256 75.3706 28.5146C76.5686 27.1867 78.5099 26.7629 80.3214 26.7629C82.7241 26.724 85.088 27.3588 87.1341 28.5923C87.8558 29.0867 87.964 29.7224 88.1372 30.5629C88.397 31.8484 88.6063 33.141 88.7506 34.4407C88.9186 35.9232 89.0078 37.4132 89.0177 38.9047Z" fill="#F38A6B"/>
<path d="M85.5464 29.3975C83.8432 29.7789 81.974 29.3339 80.3575 29.9837C78.1058 30.8808 77.146 33.7414 77.8965 36.0017C77.247 36.2348 77.1315 35.0834 76.6263 34.589C76.1212 34.0946 74.9881 34.7515 74.9087 35.5496C74.9516 36.3526 75.1997 37.1322 75.6304 37.8169C76.2446 39.2261 76.3514 40.7975 75.9335 42.2739C75.8325 42.62 75.5727 43.0297 75.2118 42.9378C75.0858 42.8907 74.9758 42.81 74.8943 42.7048C74.1149 41.7229 74.5046 40.1196 73.6097 39.2367C73.3353 39.0121 73.0433 38.809 72.7364 38.6292C71.3652 37.6545 71.0549 35.7403 71.3725 34.1087C71.5398 33.5873 71.5647 33.032 71.4446 32.4983C71.2674 32.1307 71.047 31.7847 70.7879 31.467C70.5431 31.0597 70.4228 30.5922 70.4412 30.1199C70.4595 29.6477 70.6158 29.1905 70.8915 28.8025C71.1672 28.4145 71.5507 28.112 71.9966 27.9308C72.4426 27.7496 72.9322 27.6972 73.4076 27.78C73.3472 27.1683 73.4748 26.5529 73.7739 26.0125C74.073 25.4722 74.5302 25.0316 75.0867 24.7471C75.6433 24.4626 76.274 24.3472 76.898 24.4156C77.522 24.484 78.1109 24.7332 78.5893 25.1312C79.0302 24.2894 79.7026 23.5849 80.5307 23.097C80.9557 22.8926 81.4437 22.8517 81.8981 22.9825C82.3524 23.1133 82.7401 23.4062 82.9844 23.8033C84.6804 22.2989 87.1702 21.1475 88.5775 23.6056C89.9848 26.0636 88.2022 28.8042 85.5464 29.3975Z" fill="#1E3964"/>
<path d="M79.4914 36.6444C79.9952 36.9833 80.5614 37.2232 81.1585 37.3508C81.7663 37.3917 82.3766 37.3296 82.9628 37.1671C84.8436 36.776 86.7631 36.5912 88.6857 36.6162C88.8464 36.6015 89.0078 36.6361 89.1476 36.7151C89.2565 36.7979 89.3371 36.9112 89.3785 37.04C89.7519 37.8534 89.9273 38.7406 89.891 39.6316C89.8547 40.5226 89.6076 41.3933 89.1692 42.175C89.0591 42.4062 88.887 42.6039 88.6713 42.7471C88.4673 42.848 88.243 42.9034 88.0146 42.9096C86.1815 43.1074 84.3436 43.2439 82.5009 43.3193C81.9637 43.3998 81.4144 43.3081 80.9348 43.0579C80.7039 42.9096 80.5379 42.6977 80.3142 42.5423C79.9993 42.3522 79.656 42.2115 79.2966 42.1256C77.5627 41.6208 76.0881 40.4929 75.1685 38.9683C76.6861 39.9904 78.3494 40.7877 80.1049 41.3345C80.168 41.364 80.237 41.3793 80.3069 41.3793C80.3769 41.3793 80.4459 41.364 80.509 41.3345C80.5616 41.2886 80.6031 41.2318 80.6306 41.1683C80.658 41.1048 80.6707 41.0361 80.6678 40.9672L80.9276 38.7281C80.9604 38.5934 80.9604 38.4531 80.9276 38.3184C80.8426 38.1598 80.7088 38.0313 80.5451 37.9512C79.6358 37.4002 77.7017 36.6727 77.2326 35.7191C77.7666 35.3236 78.9863 36.3619 79.4914 36.6444Z" fill="#F6F4F6"/>
<path d="M67.2733 106.91L70.3188 183.13H78.048L88.0434 108.422L67.2733 106.91Z" fill="#080608"/>
<path d="M78.8491 107.899L84.1102 183.13H91.8323L97.1006 108.422L78.8491 107.899Z" fill="#080608"/>
<path d="M69.7487 187.411C72.3286 187.779 74.9373 187.919 77.5429 187.827C78.6953 187.882 79.8494 187.76 80.9637 187.467C81.5563 187.199 82.1954 187.043 82.8473 187.008C82.8646 186.782 82.8294 186.556 82.7444 186.346C82.6594 186.135 82.5268 185.946 82.3565 185.793C80.9523 184.332 79.0714 183.395 77.0377 183.144C75.3778 182.876 72.8808 182.579 71.2642 183.109C69.6476 183.639 69.7054 185.998 69.7487 187.411Z" fill="#080608"/>
<path d="M83.9803 186.839C86.5603 187.207 89.1689 187.346 91.7745 187.255C92.9294 187.31 94.0859 187.189 95.2025 186.895C95.7951 186.627 96.4343 186.471 97.0861 186.436C97.1019 186.211 97.066 185.984 96.9811 185.774C96.8962 185.564 96.7644 185.375 96.5954 185.221C95.1901 183.761 93.3098 182.825 91.2766 182.572C89.6095 182.304 87.1124 182.007 85.5031 182.572C83.8937 183.137 83.937 185.412 83.9803 186.839Z" fill="#080608"/>
<path d="M67.0712 87.5214L74.3963 93.2498C73.7982 94.8878 73.0744 96.4792 72.2312 98.0104C72.0155 98.4989 71.6658 98.9194 71.2209 99.2253C70.3188 99.741 69.1785 99.2677 68.2548 98.8015L59.5945 94.3728C58.1225 93.7016 56.7468 92.8443 55.5026 91.823C53.0561 89.6192 51.9807 86.25 51.8941 82.9939C51.8075 79.7377 52.6519 76.538 53.4746 73.3878L55.7335 64.6787C57.1769 59.1269 58.9667 53.0807 63.8164 49.8458C65.3154 48.9405 66.904 48.1857 68.5579 47.5926C69.0586 47.4301 69.5117 47.1514 69.8786 46.7803C70.1815 46.3353 70.3833 45.8319 70.4703 45.304C70.925 43.5453 72.3684 41.956 74.1798 42.3516C74.0355 42.9378 74.7355 43.3687 75.3201 43.5806C76.7634 44.1174 78.2501 44.5883 79.7801 44.9933C80.0861 45.0484 80.375 45.1716 80.6245 45.3535C80.8298 45.6038 80.971 45.8985 81.0362 46.213C81.1015 46.5276 81.089 46.8528 80.9997 47.1617L80.2781 52.6428C80.177 53.448 82.1689 53.893 82.7101 53.2715C83.1567 52.5758 83.3238 51.7428 83.1792 50.9335L82.7462 43.1639C85.8711 43.2274 88.1228 47.1758 86.5278 49.8034C88.6929 49.3301 90.9373 50.4391 92.4024 52.0566C93.8674 53.6741 94.6757 55.7436 95.4695 57.7567C96.5954 60.6314 97.7212 63.5062 98.5872 66.4657C101.929 77.8164 101.373 89.8735 100.5 101.655C100.276 104.657 99.778 108.118 97.1006 109.651C95.8136 110.269 94.3989 110.59 92.9653 110.59C83.042 111.281 73.0717 110.931 63.2246 109.545C63.3689 105.681 63.7875 99.5008 63.9463 95.6372C65.9093 96.1952 66.8908 100.581 68.8682 101.048C70.6508 101.507 72.5632 100.546 73.7251 99.1476C74.8016 97.6756 75.5829 96.017 76.0273 94.2598C76.1701 94.0308 76.2605 93.7742 76.2922 93.5077C76.324 93.2412 76.2964 92.9712 76.2114 92.7161C76.1264 92.4611 75.9859 92.2271 75.7996 92.0302C75.6134 91.8334 75.3857 91.6783 75.1324 91.5758C72.6498 90.036 69.5394 89.0824 67.0712 87.5214Z" fill="#68E1FD"/>
<path d="M96.8047 76.3049C95.7181 72.0983 94.9748 67.8139 94.5819 63.4921C99.2519 72.3546 101.128 82.3747 99.9729 92.2821C99.9729 91.4557 98.2986 90.6293 98.1687 89.6334C98.0027 88.3408 98.6883 86.6315 98.6306 85.24C98.4862 82.1675 97.5697 79.2432 96.8047 76.3049Z" fill="url(#paint1_linear)"/>
<path d="M73.9777 100.772C74.0995 100.849 74.2452 100.882 74.3891 100.864C74.4938 100.828 74.5846 100.762 74.6489 100.673C76.0338 99.1983 76.9993 97.3936 77.4491 95.4394C76.4049 95.3054 75.4251 94.8702 74.6345 94.1892C74.4829 94.0621 74.3097 93.9137 74.1221 93.9561C73.9345 93.9985 73.8478 94.1609 73.7685 94.3163L72.6715 96.4353C72.2114 97.0898 71.8448 97.8028 71.5818 98.5543C71.4446 99.5856 73.155 100.355 73.9777 100.772Z" fill="#F38A6B"/>
<path d="M70.0373 88.7716L66.6093 85.9463C65.5629 85.0846 64.4443 84.1452 64.0834 82.8597C63.7226 81.5741 64.0834 80.2533 64.5164 78.996L67.1578 70.7249L63.1741 67.5535L66.3928 68.0408C66.6973 68.1179 67.0191 68.0956 67.3094 67.9773C67.4584 67.8696 67.5832 67.7332 67.6763 67.5765C67.7694 67.4198 67.8287 67.2461 67.8506 67.0661C68.6828 63.7881 68.331 60.3294 66.8547 57.2764L69.1569 59.1199C69.3133 59.2749 69.5151 59.3785 69.7342 59.4165C70.1023 59.4165 70.3765 59.0987 70.5786 58.802L73.4221 54.6417C72.0428 58.0574 71.0482 61.61 70.4559 65.2367C74.3603 64.7564 78.3116 64.7706 82.2122 65.2791C79.8523 65.7735 77.5068 66.3668 75.1974 67.052C74.427 67.2306 73.7023 67.5624 73.0684 68.0267C72.6245 68.4663 72.2771 68.99 72.0475 69.5657C71.8179 70.1415 71.711 70.7571 71.7333 71.3747C71.69 72.6037 71.8776 73.8469 71.7333 75.0688C75.3474 74.8077 78.9803 74.9594 82.5586 75.5209L76.7851 76.3261C75.7364 76.3904 74.7178 76.6952 73.8118 77.2161C71.9787 78.4663 71.8776 81.0444 71.9642 83.234L85.6763 83.3117C82.3982 83.6069 79.1571 84.2125 75.9985 85.1199C74.8237 85.4154 73.7533 86.0185 72.9024 86.8645C72.4913 87.2971 72.2357 87.8492 72.1744 88.4369C72.1132 89.0247 72.2497 89.6159 72.5632 90.1207C72.9335 90.5307 73.3611 90.8874 73.8334 91.1802C75.1877 92.2037 76.0747 93.7089 76.3016 95.3688C72.3809 92.3129 68.7789 88.8846 65.5485 85.134" fill="url(#paint2_linear)"/>
<path d="M84.1968 52.1484C83.5401 54.8748 82.7029 57.799 83.8721 60.363C86.3354 60.2946 88.8006 60.4032 91.2477 60.6879L85.0628 61.6274C84.691 65.1678 84.8932 68.7436 85.6619 72.2223C88.2496 72.095 90.8435 72.1659 93.42 72.4342C91.4955 72.7874 89.5902 73.2041 87.7042 73.6844C87.3536 73.7323 87.0315 73.8999 86.7949 74.1577C86.6215 74.4943 86.5828 74.8823 86.6866 75.2454L87.8341 82.3723C89.3619 82.0633 90.9267 81.9682 92.4818 82.0898C91.8323 82.9727 90.4466 82.7961 89.494 83.3541C88.3754 83.9898 88.0939 85.4731 88.1445 86.7162C88.195 87.9594 88.4403 89.3014 87.9424 90.4739C89.5675 90.8197 91.2446 90.8628 92.8859 90.601L89.6528 91.1378C89.2776 91.1554 88.9204 91.3002 88.6424 91.5475C88.4129 91.8762 88.3129 92.2752 88.361 92.6706C88.361 95.3546 88.4043 98.0363 88.4909 100.716C87.1413 89.8382 85.799 78.9395 83.5906 68.2245C82.7246 64.0359 81.7287 59.8333 81.7503 55.567C81.73 55.105 81.7836 54.6426 81.9091 54.1968C82.1941 53.597 82.5398 53.0267 82.9411 52.4945C83.4879 51.5169 83.7382 50.4069 83.6628 49.2948C83.6628 48.5885 82.9411 46.9569 83.6628 46.4695C85.3227 45.2122 84.37 51.4279 84.1968 52.1484Z" fill="url(#paint3_linear)"/>
<path d="M97.9882 89.8029C97.779 90.8836 97.613 91.9643 97.4903 93.0591C97.4254 93.49 97.4254 93.9278 97.4903 94.3587C97.6205 94.8808 97.8401 95.3776 98.1398 95.8279L99.4461 98.0458C99.5904 98.293 99.7708 98.5685 100.059 98.6179C100.18 98.6288 100.301 98.6099 100.412 98.563C100.523 98.5161 100.62 98.4427 100.695 98.3495C101.008 97.9071 101.163 97.3756 101.135 96.8379C101.28 95.2602 101.185 93.6701 100.853 92.1196C100.478 90.714 99.3594 90.2408 97.9882 89.8029Z" fill="#F38A6B"/>
<path d="M64.0185 99.8257C64.3553 100.404 64.8038 100.913 65.3392 101.323L68.4424 104.028C68.8971 104.424 69.5105 104.841 70.0518 104.579C70.2885 104.437 70.4866 104.241 70.6291 104.007C71.1487 103.325 71.8135 102.761 72.5777 102.354C73.0468 102.1 73.6241 101.825 73.6963 101.309C73.7685 100.793 73.2056 100.292 72.7004 99.9952L71.524 99.2889C71.373 99.1805 71.197 99.1101 71.0116 99.0841C70.8044 99.0862 70.6001 99.132 70.4126 99.2183C68.8899 99.7198 67.2877 98.8227 65.9454 97.9681C65.4835 97.6714 64.4226 96.6825 63.8958 97.2617C63.369 97.8409 63.7731 99.2748 64.0185 99.8257Z" fill="url(#paint4_linear)"/>
</g>
<defs>
<linearGradient id="paint0_linear" x1="122.287" y1="193.259" x2="19.606" y2="184.826" gradientUnits="userSpaceOnUse">
<stop offset="0.01"/>
<stop offset="0.13" stop-opacity="0.69"/>
<stop offset="1" stop-opacity="0"/>
</linearGradient>
<linearGradient id="paint1_linear" x1="1366.31" y1="4045.73" x2="1491.52" y2="4040.32" gradientUnits="userSpaceOnUse">
<stop offset="0.01"/>
<stop offset="0.13" stop-opacity="0.69"/>
<stop offset="1" stop-opacity="0"/>
</linearGradient>
<linearGradient id="paint2_linear" x1="3484.4" y1="5507.58" x2="4988.95" y2="5461.49" gradientUnits="userSpaceOnUse">
<stop offset="0.01"/>
<stop offset="0.13" stop-opacity="0.69"/>
<stop offset="1" stop-opacity="0"/>
</linearGradient>
<linearGradient id="paint3_linear" x1="2005.48" y1="7015.05" x2="2899.22" y2="7017.17" gradientUnits="userSpaceOnUse">
<stop offset="0.01"/>
<stop offset="0.13" stop-opacity="0.69"/>
<stop offset="1" stop-opacity="0"/>
</linearGradient>
<linearGradient id="paint4_linear" x1="2097.8" y1="1277.24" x2="2058.34" y2="1407.63" gradientUnits="userSpaceOnUse">
<stop offset="0.01"/>
<stop offset="0.13" stop-opacity="0.69"/>
<stop offset="1" stop-opacity="0"/>
</linearGradient>
</defs>
</svg>
